{
  "accessors": [
    {
      "bufferView": 2,
      "componentType": 5126,
      "count": 51,
      "max": [
        0.84393870830535889,
        1.8172566890716553,
        1.2188789844512939
      ],
      "min": [
        -0.84393870830535889,
        -0.51206618547439575,
        1.1746848821640015
      ],
      "type": "VEC3"
    },
    {
      "bufferView": 2,
      "byteOffset": 612,
      "componentType": 5126,
      "count": 51,
      "max": [
        0.8085893988609314,
        0.56904089450836182,
        0.1495848149061203
      ],
      "min": [
        -0.49970594048500061,
        -0.50987261533737183,
        -1
      ],
      "type": "VEC3"
    },
    {
      "bufferView": 3,
      "componentType": 5126,
      "count": 51,
      "max": [
        1,
        0.81779009103775024,
        3.9828751141612884e-06,
        1
      ],
      "min": [
        -1,
        -1,
        -2.9385443411911183e-08,
        -1
      ],
      "type": "VEC4"
    },
    {
      "bufferView": 3,
      "byteOffset": 816,
      "componentType": 5126,
      "count": 51,
      "max": [
        1,
        1,
        1,
        1
      ],
      "min": [
        1,
        1,
        1,
        1
      ],
      "type": "VEC4"
    },
    {
      "bufferView": 1,
      "componentType": 5126,
      "count": 51,
      "max": [
        87.206718444824219,
        15.862383842468262
      ],
      "min": [
        -5.2172245979309082,
        -2.4436383247375488
      ],
      "type": "VEC2"
    },
    {
      "bufferView": 0,
      "componentType": 5125,
      "count": 75,
      "max": [
        50
      ],
      "min": [
        0
      ],
      "type": "SCALAR"
    },
    {
      "bufferView": 2,
      "byteOffset": 1224,
      "componentType": 5126,
      "count": 5886,
      "max": [
        0.97007757425308228,
        2.1511316299438477,
        1.921097993850708
      ],
      "min": [
        -0.97007757425308228,
        -2.0788683891296387,
        -0.0085860798135399818
      ],
      "type": "VEC3"
    },
    {
      "bufferView": 2,
      "byteOffset": 71856,
      "componentType": 5126,
      "count": 5886,
      "max": [
        1,
        1,
        1
      ],
      "min": [
        -1,
        -1,
        -1
      ],
      "type": "VEC3"
    },
    {
      "bufferView": 3,
      "byteOffset": 1632,
      "componentType": 5126,
      "count": 5886,
      "max": [
        1,
        1,
        1,
        1
      ],
      "min": [
        -1,
        -1,
        -1,
        -1
      ],
      "type": "VEC4"
    },
    {
      "bufferView": 3,
      "byteOffset": 95808,
      "componentType": 5126,
      "count": 5886,
      "max": [
        1,
        1,
        1,
        1
      ],
      "min": [
        1,
        1,
        1,
        1
      ],
      "type": "VEC4"
    },
    {
      "bufferView": 1,
      "byteOffset": 408,
      "componentType": 5126,
      "count": 5886,
      "max": [
        0.98334652185440063,
        2.359959602355957
      ],
      "min": [
        -0.86232262849807739,
        -0.14819304645061493
      ],
      "type": "VEC2"
    },
    {
      "bufferView": 0,
      "byteOffset": 300,
      "componentType": 5125,
      "count": 14124,
      "max": [
        5885
      ],
      "min": [
        0
      ],
      "type": "SCALAR"
    }
  ],
  "asset": {
    "extras": {
      "author": "Jose Bronze (https://sketchfab.com/pinceladas3d)",
      "license": "CC-BY-4.0 (http://creativecommons.org/licenses/by/4.0/)",
      "source": "https://sketchfab.com/models/192f7e81dce84c6780434f692a0f96c5",
      "title": "Jeep Renegade 2016"
    },
    "generator": "Sketchfab-3.47.8",
    "version": "2.0"
  },
  "bufferViews": [
    {
      "buffer": 0,
      "byteLength": 56796,
      "byteOffset": 0,
      "name": "floatBufferViews",
      "target": 34963
    },
    {
      "buffer": 0,
      "byteLength": 47496,
      "byteOffset": 56796,
      "byteStride": 8,
      "name": "floatBufferViews",
      "target": 34962
    },
    {
      "buffer": 0,
      "byteLength": 142488,
      "byteOffset": 104292,
      "byteStride": 12,
      "name": "floatBufferViews",
      "target": 34962
    },
    {
      "buffer": 0,
      "byteLength": 189984,
      "byteOffset": 246780,
      "byteStride": 16,
      "name": "floatBufferViews",
      "target": 34962
    }
  ],
  "buffers": [
    {
      "byteLength": 436764,
      "uri": "scene.bin"
    }
  ],
  "extensionsUsed": [
    "KHR_materials_unlit"
  ],
  "images": [
    {
      "uri": "textures/car_jeep_baseColor.jpeg"
    }
  ],
  "materials": [
    {
      "doubleSided": true,
      "emissiveFactor": [
        0,
        0,
        0
      ],
      "extensions": {
        "KHR_materials_unlit": {}
      },
      "name": "car_jeep",
      "pbrMetallicRoughness": {
        "baseColorFactor": [
          1,
          1,
          1,
          1
        ],
        "baseColorTexture": {
          "index": 0,
          "texCoord": 0
        },
        "metallicFactor": 0,
        "roughnessFactor": 1
      }
    },
    {
      "doubleSided": true,
      "emissiveFactor": [
        0,
        0,
        0
      ],
      "extensions": {
        "KHR_materials_unlit": {}
      },
      "name": "FrontCol",
      "pbrMetallicRoughness": {
        "baseColorFactor": [
          1,
          1,
          1,
          1
        ],
        "metallicFactor": 0,
        "roughnessFactor": 1
      }
    }
  ],
  "meshes": [
    {
      "primitives": [
        {
          "attributes": {
            "COLOR_0": 3,
            "NORMAL": 1,
            "POSITION": 0,
            "TANGENT": 2,
            "TEXCOORD_0": 4
          },
          "indices": 5,
          "material": 1,
          "mode": 4
        }
      ]
    },
    {
      "primitives": [
        {
          "attributes": {
            "COLOR_0": 9,
            "NORMAL": 7,
            "POSITION": 6,
            "TANGENT": 8,
            "TEXCOORD_0": 10
          },
          "indices": 11,
          "material": 0,
          "mode": 4
        }
      ]
    }
  ],
  "nodes": [
    {
      "children": [
        1
      ],
      "name": "RootNode (gltf orientation matrix)",
      "rotation": [
        -0.70710678118654746,
        -0,
        -0,
        0.70710678118654757
      ]
    },
    {
      "children": [
        2
      ],
      "name": "RootNode (model correction matrix)"
    },
    {
      "children": [
        3,
        4
      ],
      "name": "Model"
    },
    {
      "mesh": 0,
      "name": ""
    },
    {
      "mesh": 1,
      "name": ""
    }
  ],
  "samplers": [
    {
      "magFilter": 9729,
      "minFilter": 9987,
      "wrapS": 10497,
      "wrapT": 10497
    }
  ],
  "scene": 0,
  "scenes": [
    {
      "name": "OSG_Scene",
      "nodes": [
        0
      ]
    }
  ],
  "textures": [
    {
      "sampler": 0,
      "source": 0
    }
  ]
}

